<svg width="44" height="40" viewBox="0 0 44 40" fill="none" xmlns="http://www.w3.org/2000/svg">
<path fill-rule="evenodd" clip-rule="evenodd" d="M22 4.15278C18.5427 1.31474 14.586 -0.051974 10.987 0.00151036C7.02557 0.0603791 3.40011 1.86685 1.64499 5.42253C-0.0961491 8.94988 0.213162 13.7746 3.13925 19.4741C6.06753 25.178 11.7006 31.9517 21.011 39.6267C21.1877 39.7829 21.3946 39.891 21.6132 39.9493C21.8676 40.0174 22.1349 40.0164 22.3868 39.9493C22.6053 39.891 22.8122 39.7829 22.989 39.6267C32.2993 31.9517 37.9324 25.178 40.8607 19.4741C43.7867 13.7746 44.0961 8.94988 42.3549 5.42253C40.5998 1.86685 36.9743 0.0603791 33.0129 0.00151036C29.4139 -0.051974 25.4572 1.31474 22 4.15278ZM40.407 11.044C40.3872 11.1744 40.376 11.3061 40.3736 11.4382C40.3871 11.3051 40.3982 11.1737 40.407 11.044Z" fill="white"/>
</svg>
